<?xml version="1.0" encoding="UTF-8" standalone="no"?>
<svg
   xmlns:dc="http://purl.org/dc/elements/1.1/"
   xmlns:cc="http://creativecommons.org/ns#"
   xmlns:rdf="http://www.w3.org/1999/02/22-rdf-syntax-ns#"
   xmlns:svg="http://www.w3.org/2000/svg"
   xmlns="http://www.w3.org/2000/svg"
   xmlns:sodipodi="http://sodipodi.sourceforge.net/DTD/sodipodi-0.dtd"
   xmlns:inkscape="http://www.inkscape.org/namespaces/inkscape"
   width="70"
   height="70"
   viewBox="0 0 70 70"
   version="1.1"
   id="svg6"
   sodipodi:docname="fan.svg"
   inkscape:version="0.92.2 2405546, 2018-03-11">
  <metadata
     id="metadata12">
    <rdf:RDF>
      <cc:Work
         rdf:about="">
        <dc:format>image/svg+xml</dc:format>
        <dc:type
           rdf:resource="http://purl.org/dc/dcmitype/StillImage" />
      </cc:Work>
    </rdf:RDF>
  </metadata>
  <defs
     id="defs10" />
  <sodipodi:namedview
     pagecolor="#ffffff"
     bordercolor="#666666"
     borderopacity="1"
     objecttolerance="10"
     gridtolerance="10"
     guidetolerance="10"
     inkscape:pageopacity="0"
     inkscape:pageshadow="2"
     inkscape:window-width="958"
     inkscape:window-height="1030"
     id="namedview8"
     showgrid="false"
     inkscape:zoom="2.8229262"
     inkscape:cx="81.195771"
     inkscape:cy="8.8560722"
     inkscape:window-x="960"
     inkscape:window-y="24"
     inkscape:window-maximized="0"
     inkscape:current-layer="svg6" />
  <path
     d="m 35,35 c 0,-8.75 7.291667,-16.041667 16.041667,-16.041667 8.75,0 16.041666,7.291667 16.041666,16.041667 z m 0,0 C 35,43.75 27.708333,51.041667 18.958333,51.041667 10.208333,51.041667 2.9166667,43.75 2.9166667,35 Z m 0,0 C 26.25,35 18.958333,27.708333 18.958333,18.958333 18.958333,10.208333 26.25,2.916667 35,2.916667 Z m 0,0 c 8.75,0 16.041667,7.291667 16.041667,16.041667 0,8.75 -7.291667,16.041666 -16.041667,16.041666 z"
     id="path2"
     inkscape:connector-curvature="0"
     style="stroke-width:2.91666675;fill:#292d32;fill-opacity:1" />
  <path
     d="M 0,0 H 70 V 70 H 0 Z"
     id="path4"
     inkscape:connector-curvature="0"
     style="fill:none;stroke-width:2.91666675" />
</svg>
