<?xml version="1.0" encoding="UTF-8" standalone="no"?>
<svg
   xmlns:dc="http://purl.org/dc/elements/1.1/"
   xmlns:cc="http://creativecommons.org/ns#"
   xmlns:rdf="http://www.w3.org/1999/02/22-rdf-syntax-ns#"
   xmlns:svg="http://www.w3.org/2000/svg"
   xmlns="http://www.w3.org/2000/svg"
   xmlns:sodipodi="http://sodipodi.sourceforge.net/DTD/sodipodi-0.dtd"
   xmlns:inkscape="http://www.inkscape.org/namespaces/inkscape"
   width="70"
   height="70"
   viewBox="0 0 70 70"
   version="1.1"
   id="svg6"
   sodipodi:docname="link.svg"
   inkscape:version="0.92.2 2405546, 2018-03-11">
  <metadata
     id="metadata12">
    <rdf:RDF>
      <cc:Work
         rdf:about="">
        <dc:format>image/svg+xml</dc:format>
        <dc:type
           rdf:resource="http://purl.org/dc/dcmitype/StillImage" />
      </cc:Work>
    </rdf:RDF>
  </metadata>
  <defs
     id="defs10" />
  <sodipodi:namedview
     pagecolor="#ffffff"
     bordercolor="#666666"
     borderopacity="1"
     objecttolerance="10"
     gridtolerance="10"
     guidetolerance="10"
     inkscape:pageopacity="0"
     inkscape:pageshadow="2"
     inkscape:window-width="958"
     inkscape:window-height="1030"
     id="namedview8"
     showgrid="false"
     inkscape:zoom="9.8333333"
     inkscape:cx="7.393318"
     inkscape:cy="7.9322033"
     inkscape:window-x="960"
     inkscape:window-y="24"
     inkscape:window-maximized="0"
     inkscape:current-layer="svg6" />
  <path
     d="M 0,0 H 70 V 70 H 0 Z"
     id="path2"
     inkscape:connector-curvature="0"
     style="fill:none;stroke-width:2.91666627" />
  <path
     d="m 11.375,35 c 0,-4.9875 4.054167,-9.041667 9.041667,-9.041667 H 32.083326 V 20.416667 H 20.416667 c -8.05,0 -14.5833344,6.533333 -14.5833344,14.583333 0,8.05 6.5333344,14.583333 14.5833344,14.583333 H 32.083326 V 44.041667 H 20.416667 C 15.429167,44.041667 11.375,39.9875 11.375,35 Z m 11.958333,2.916667 H 46.666674 V 32.083333 H 23.333333 Z m 26.249993,-17.5 H 37.916674 v 5.541666 h 11.666652 c 4.9875,0 9.041674,4.054167 9.041674,9.041667 0,4.9875 -4.054174,9.041667 -9.041674,9.041667 H 37.916674 v 5.541666 h 11.666652 c 8.05,0 14.583348,-6.533333 14.583348,-14.583333 0,-8.05 -6.533348,-14.583333 -14.583348,-14.583333 z"
     id="path4"
     style="fill:#FF8C40;fill-opacity:1;stroke-width:2.91666627"
     inkscape:connector-curvature="0" />
</svg>
